<?xml version="1.0" encoding="UTF-8" standalone="no"?><svg xmlns="http://www.w3.org/2000/svg" xmlns:xlink="http://www.w3.org/1999/xlink" contentScriptType="application/ecmascript" contentStyleType="text/css" height="781px" preserveAspectRatio="none" style="width:1139px;height:781px;" version="1.1" viewBox="0 0 1139 781" width="1139px" zoomAndPan="magnify"><defs><filter height="300%" id="feuov3wa8v1oi" width="300%" x="-1" y="-1"><feGaussianBlur result="blurOut" stdDeviation="2.0"/><feColorMatrix in="blurOut" result="blurOut2" type="matrix" values="0 0 0 0 0 0 0 0 0 0 0 0 0 0 0 0 0 0 .4 0"/><feOffset dx="4.0" dy="4.0" in="blurOut2" result="blurOut3"/><feBlend in="SourceGraphic" in2="blurOut3" mode="normal"/></filter></defs><g><ellipse cx="359.5" cy="18" fill="#000000" filter="url(#feuov3wa8v1oi)" rx="10" ry="10" style="stroke: none; stroke-width: 1.0;"/><rect fill="#FEFECE" filter="url(#feuov3wa8v1oi)" height="50" rx="12.5" ry="12.5" style="stroke: #A80036; stroke-width: 1.5;" width="113" x="6" y="185"/><line style="stroke: #A80036; stroke-width: 1.5;" x1="6" x2="119" y1="211.2969" y2="211.2969"/><text fill="#000000" font-family="sans-serif" font-size="14" lengthAdjust="spacingAndGlyphs" textLength="93" x="16" y="202.9951">infiniteSearch</text><rect fill="#FEFECE" filter="url(#feuov3wa8v1oi)" height="50" rx="12.5" ry="12.5" style="stroke: #A80036; stroke-width: 1.5;" width="134" x="239.5" y="345"/><line style="stroke: #A80036; stroke-width: 1.5;" x1="239.5" x2="373.5" y1="371.2969" y2="371.2969"/><text fill="#000000" font-family="sans-serif" font-size="14" lengthAdjust="spacingAndGlyphs" textLength="114" x="249.5" y="362.9951">fixedTimeSearch</text><rect fill="#FEFECE" filter="url(#feuov3wa8v1oi)" height="50" rx="12.5" ry="12.5" style="stroke: #A80036; stroke-width: 1.5;" width="179" x="498" y="105"/><line style="stroke: #A80036; stroke-width: 1.5;" x1="498" x2="677" y1="131.2969" y2="131.2969"/><text fill="#000000" font-family="sans-serif" font-size="14" lengthAdjust="spacingAndGlyphs" textLength="159" x="508" y="122.9951">standardSearchPonder</text><rect fill="#FEFECE" filter="url(#feuov3wa8v1oi)" height="50" rx="12.5" ry="12.5" style="stroke: #A80036; stroke-width: 1.5;" width="129" x="662" y="265"/><line style="stroke: #A80036; stroke-width: 1.5;" x1="662" x2="791" y1="291.2969" y2="291.2969"/><text fill="#000000" font-family="sans-serif" font-size="14" lengthAdjust="spacingAndGlyphs" textLength="109" x="672" y="282.9951">standardSearch</text><rect fill="#FEFECE" filter="url(#feuov3wa8v1oi)" height="50" rx="12.5" ry="12.5" style="stroke: #A80036; stroke-width: 1.5;" width="125" x="468" y="639"/><line style="stroke: #A80036; stroke-width: 1.5;" x1="468" x2="593" y1="665.2969" y2="665.2969"/><text fill="#000000" font-family="sans-serif" font-size="14" lengthAdjust="spacingAndGlyphs" textLength="105" x="478" y="656.9951">searchFinished</text><rect fill="#FEFECE" filter="url(#feuov3wa8v1oi)" height="50" rx="12.5" ry="12.5" style="stroke: #A80036; stroke-width: 1.5;" width="229" x="584" y="446"/><line style="stroke: #A80036; stroke-width: 1.5;" x1="584" x2="813" y1="472.2969" y2="472.2969"/><text fill="#000000" font-family="sans-serif" font-size="14" lengthAdjust="spacingAndGlyphs" textLength="209" x="594" y="463.9951">standardSearchExtendedTime</text><ellipse cx="530.5" cy="760" fill="none" filter="url(#feuov3wa8v1oi)" rx="10" ry="10" style="stroke: #000000; stroke-width: 1.0;"/><ellipse cx="531" cy="760.5" fill="#000000" rx="6" ry="6" style="stroke: none; stroke-width: 1.0;"/><!--link *start to infiniteSearch--><path d="M349.241,18.74 C302.464,17.789 110.018,16.477 71.5,58 C41.4083,90.44 47.0279,145.586 54.3865,179.499 " fill="none" id="*start-infiniteSearch" style="stroke: #A80036; stroke-width: 1.0;"/><polygon fill="#A80036" points="55.5772,184.753,57.4879,175.0913,54.4715,179.8768,49.686,176.8604,55.5772,184.753" style="stroke: #A80036; stroke-width: 1.0;"/><text fill="#000000" font-family="sans-serif" font-size="13" lengthAdjust="spacingAndGlyphs" textLength="169" x="72.5" y="71.0669">1) _limits.isInfiniteSearch()</text><!--link *start to fixedTimeSearch--><path d="M352.015,24.638 C336.225,37.06 299.866,68.6 286.5,105 C256.784,185.927 281.346,289.981 296.604,339.834 " fill="none" id="*start-fixedTimeSearch" style="stroke: #A80036; stroke-width: 1.0;"/><polygon fill="#A80036" points="298.14,344.775,299.2878,334.9933,296.6556,340.0004,291.6485,337.3683,298.14,344.775" style="stroke: #A80036; stroke-width: 1.0;"/><text fill="#000000" font-family="sans-serif" font-size="13" lengthAdjust="spacingAndGlyphs" textLength="192" x="287.5" y="134.5669">2) _limits.isMoveTimeSearch()</text><!--link *start to standardSearchPonder--><path d="M368.159,23.178 C394.822,36.041 477.245,75.807 533.104,102.756 " fill="none" id="*start-standardSearchPonder" style="stroke: #A80036; stroke-width: 1.0;"/><polygon fill="#A80036" points="537.751,104.998,531.3828,97.4849,533.2476,102.8256,527.9069,104.6903,537.751,104.998" style="stroke: #A80036; stroke-width: 1.0;"/><text fill="#000000" font-family="sans-serif" font-size="13" lengthAdjust="spacingAndGlyphs" textLength="146" x="474.5" y="71.0669">3) _limits.isPondering()</text><!--link *start to standardSearch--><path d="M369.505,18.758 C405.886,18.219 534.02,19.337 629.5,58 C662.544,71.38 672.721,76.776 694.5,105 C729.381,150.203 731.416,220.28 729.288,259.623 " fill="none" id="*start-standardSearch" style="stroke: #A80036; stroke-width: 1.0;"/><polygon fill="#A80036" points="728.979,264.731,733.5144,255.9886,729.2805,259.7401,725.5289,255.5062,728.979,264.731" style="stroke: #A80036; stroke-width: 1.0;"/><text fill="#000000" font-family="sans-serif" font-size="13" lengthAdjust="spacingAndGlyphs" textLength="26" x="720.5" y="134.5669">else</text><!--link infiniteSearch to searchFinished--><path d="M52.7902,235.225 C39.6885,271.996 20.8742,343.099 47.5,395 C129.558,554.952 350.437,624.355 462.824,650.052 " fill="none" id="infiniteSearch-searchFinished" style="stroke: #A80036; stroke-width: 1.0;"/><polygon fill="#A80036" points="467.763,651.17,459.8672,645.283,462.8862,650.0669,458.1023,653.0859,467.763,651.17" style="stroke: #A80036; stroke-width: 1.0;"/><text fill="#000000" font-family="sans-serif" font-size="13" lengthAdjust="spacingAndGlyphs" textLength="40" x="114.5" y="359.5669">stop ||</text><text fill="#000000" font-family="sans-serif" font-size="13" lengthAdjust="spacingAndGlyphs" textLength="164" x="52.5" y="374.6997">(firstIteration Finished &amp;&amp;</text><text fill="#000000" font-family="sans-serif" font-size="13" lengthAdjust="spacingAndGlyphs" textLength="141" x="66" y="389.8325">node limits exceeded)</text><!--link fixedTimeSearch to searchFinished--><path d="M305.089,395.154 C304.439,425.782 307.213,479.151 330.5,517 C364.041,571.514 426.217,612.002 472.375,636.34 " fill="none" id="fixedTimeSearch-searchFinished" style="stroke: #A80036; stroke-width: 1.0;"/><polygon fill="#A80036" points="477.072,638.791,470.9421,631.0823,472.6388,636.4787,467.2424,638.1754,477.072,638.791" style="stroke: #A80036; stroke-width: 1.0;"/><text fill="#000000" font-family="sans-serif" font-size="13" lengthAdjust="spacingAndGlyphs" textLength="40" x="397.5" y="460.5669">stop ||</text><text fill="#000000" font-family="sans-serif" font-size="13" lengthAdjust="spacingAndGlyphs" textLength="164" x="335.5" y="475.6997">(firstIteration Finished &amp;&amp;</text><text fill="#000000" font-family="sans-serif" font-size="13" lengthAdjust="spacingAndGlyphs" textLength="138" x="350.5" y="490.8325">time limits exceeded)</text><!--link standardSearchPonder to searchFinished--><path d="M576.309,155.251 C572.564,164.389 568.769,174.994 566.5,185 C528.75,351.441 528.38,557.966 529.726,633.542 " fill="none" id="standardSearchPonder-searchFinished" style="stroke: #A80036; stroke-width: 1.0;"/><polygon fill="#A80036" points="529.825,638.755,533.652,629.6801,529.7293,633.7559,525.6534,629.8332,529.825,638.755" style="stroke: #A80036; stroke-width: 1.0;"/><text fill="#000000" font-family="sans-serif" font-size="13" lengthAdjust="spacingAndGlyphs" textLength="28" x="542.5" y="374.5669">stop</text><!--link standardSearchPonder to standardSearch--><path d="M579.625,155.15 C573.825,177.817 569.432,211.64 585.5,235 C601.793,258.686 630.004,271.989 656.932,279.457 " fill="none" id="standardSearchPonder-standardSearch" style="stroke: #A80036; stroke-width: 1.0;"/><polygon fill="#A80036" points="661.942,280.785,654.2678,274.612,657.109,279.5035,652.2174,282.3448,661.942,280.785" style="stroke: #A80036; stroke-width: 1.0;"/><text fill="#000000" font-family="sans-serif" font-size="13" lengthAdjust="spacingAndGlyphs" textLength="134" x="586.5" y="214.5669">!_limits.isPondering()</text><!--link standardSearch to searchFinished--><path d="M791.193,300.713 C817.58,308.208 845.579,321.484 861.5,345 C895.601,395.369 1005.018,439.715 860.5,609 C827.47,647.691 684.999,658.715 598.416,661.82 " fill="none" id="standardSearch-searchFinished" style="stroke: #A80036; stroke-width: 1.0;"/><polygon fill="#A80036" points="593.309,661.996,602.4419,665.6825,598.306,661.8231,602.1653,657.6873,593.309,661.996" style="stroke: #A80036; stroke-width: 1.0;"/><text fill="#000000" font-family="sans-serif" font-size="13" lengthAdjust="spacingAndGlyphs" textLength="40" x="1010.5" y="438.0669">stop ||</text><text fill="#000000" font-family="sans-serif" font-size="13" lengthAdjust="spacingAndGlyphs" textLength="113" x="976" y="453.1997">(IdLoopEnded &amp;&amp;</text><text fill="#000000" font-family="sans-serif" font-size="13" lengthAdjust="spacingAndGlyphs" textLength="129" x="968" y="468.3325">time &gt; minTime &amp;&amp;</text><text fill="#000000" font-family="sans-serif" font-size="13" lengthAdjust="spacingAndGlyphs" textLength="190" x="937.5" y="483.4653">time &gt; 70% allocatedTime ) ||</text><text fill="#000000" font-family="sans-serif" font-size="13" lengthAdjust="spacingAndGlyphs" textLength="164" x="950.5" y="498.5981">(firstIteration Finished &amp;&amp;</text><text fill="#000000" font-family="sans-serif" font-size="13" lengthAdjust="spacingAndGlyphs" textLength="153" x="956" y="513.731">time &gt;= allocatedTime)</text><!--link standardSearch to standardSearchExtendedTime--><path d="M714.021,315.105 C709.896,324.227 705.782,334.86 703.5,345 C696.289,377.047 695.854,414.857 696.704,440.435 " fill="none" id="standardSearch-standardSearchExtendedTime" style="stroke: #A80036; stroke-width: 1.0;"/><polygon fill="#A80036" points="696.903,445.701,700.5581,436.5555,696.713,440.7046,692.5638,436.8595,696.903,445.701" style="stroke: #A80036; stroke-width: 1.0;"/><text fill="#000000" font-family="sans-serif" font-size="13" lengthAdjust="spacingAndGlyphs" textLength="148" x="704.5" y="367.0669">time &gt;= allocatedTime</text><text fill="#000000" font-family="sans-serif" font-size="13" lengthAdjust="spacingAndGlyphs" textLength="72" x="746.5" y="382.1997">&amp;&amp; failover</text><!--link standardSearchExtendedTime to searchFinished--><path d="M677.223,496.19 C646.128,531.541 588.394,597.181 555.377,634.717 " fill="none" id="standardSearchExtendedTime-searchFinished" style="stroke: #A80036; stroke-width: 1.0;"/><polygon fill="#A80036" points="551.869,638.705,560.8162,634.5882,555.1709,634.9504,554.8087,629.3051,551.869,638.705" style="stroke: #A80036; stroke-width: 1.0;"/><text fill="#000000" font-family="sans-serif" font-size="13" lengthAdjust="spacingAndGlyphs" textLength="40" x="721.5" y="560.0669">stop ||</text><text fill="#000000" font-family="sans-serif" font-size="13" lengthAdjust="spacingAndGlyphs" textLength="212" x="635.5" y="575.1997">( time &gt;= maxAllocatedTime &amp;&amp;</text><text fill="#000000" font-family="sans-serif" font-size="13" lengthAdjust="spacingAndGlyphs" textLength="142" x="670.5" y="590.3325">firstIteration Finished )</text><text fill="#000000" font-family="sans-serif" font-size="13" lengthAdjust="spacingAndGlyphs" textLength="94" x="696.5" y="605.4653">|| IdLoopEnded</text><!--link searchFinished to *end--><path d="M530.5,689.2073 C530.5,706.8423 530.5,730.1261 530.5,744.8351 " fill="none" id="searchFinished-*end" style="stroke: #A80036; stroke-width: 1.0;"/><polygon fill="#A80036" points="530.5,749.8399,534.5,740.8399,530.5,744.8399,526.5,740.8399,530.5,749.8399" style="stroke: #A80036; stroke-width: 1.0;"/><!--
@startuml
[*] - -> infiniteSearch : 1) _limits.isInfiniteSearch()
[*] - -> fixedTimeSearch : 2) _limits.isMoveTimeSearch()
[*] - -> standardSearchPonder : 3) _limits.isPondering()
[*] - -> standardSearch : else

infiniteSearch - -> searchFinished : stop ||\n (firstIteration Finished && \n node limits exceeded)
fixedTimeSearch - -> searchFinished : stop ||\n (firstIteration Finished && \n time limits exceeded) 
standardSearchPonder - -> searchFinished : stop
standardSearchPonder - -> standardSearch : !_limits.isPondering()
standardSearch - -> searchFinished : stop ||\n (IdLoopEnded &&\n time > minTime &&\n time > 70% allocatedTime ) ||\n (firstIteration Finished &&\n time >= allocatedTime)
standardSearch - -> standardSearchExtendedTime : time >= allocatedTime \n && failover
standardSearchExtendedTime - -> searchFinished : stop ||\n ( time >= maxAllocatedTime && \nfirstIteration Finished )\n || IdLoopEnded
searchFinished - -> [*]
@enduml

PlantUML version 1.2019.01(Sat Feb 09 15:32:04 UTC 2019)
(GPL source distribution)
Java Runtime: Java(TM) SE Runtime Environment
JVM: Java HotSpot(TM) 64-Bit Server VM
Java Version: 1.7.0_25-b15
Operating System: Linux
Default Encoding: UTF-8
Language: en
Country: US
--></g></svg>